<?xml version="1.0" encoding="UTF-8"?><svg id="Layer_1" xmlns="http://www.w3.org/2000/svg" viewBox="0 0 170 34"><defs><style>.cls-1{fill:#fff;fill-rule:evenodd;}</style></defs><g id="Page-1"><g id="buttons-light"><path id="Scroll" class="cls-1" d="M170,0h-34V34h34V0Zm-17,17.59l4.12-4.12,1.41,1.41-5.54,5.54v-2.83h0Zm0,0l-4.12-4.12-1.41,1.41,5.54,5.54v-2.83h0Z"/><path id="More" class="cls-1" d="M102,0V34h34V0h-34Zm11,16v2h2v-2h-2Zm5,0v2h2v-2h-2Zm5,0v2h2v-2h-2Z"/><path id="Open" class="cls-1" d="M34,0V34h34V0H34Zm9,11v2h16v-2h-16Zm0,5v2h16v-2h-16Zm0,5v2h16v-2h-16Z"/><path id="Close" class="cls-1" d="M85,18.41l-4.95,4.95-1.41-1.41,4.95-4.95-4.95-4.95,1.41-1.41,4.95,4.95,4.95-4.95,1.41,1.41-4.95,4.95,4.95,4.95-1.41,1.41-4.95-4.95ZM68,0V34h34V0h-34Z"/><path id="_-" class="cls-1" d="M13.68,33.02c-.11,.02-.21,.04-.32,.04-1.39,0-2.03-.39-2.51-.88-.23-.23-.35-.54-.34-.87,.09-3.58-1.58-5.31-3.42-5.31-.35,0-.64,.17-.95,.3-.48,.18-1.03,.04-1.35-.36-2.19-2.69-3.6-6.28-3.6-10.02C1.17,7.26,8.19,.24,16.84,.24s15.67,7.02,15.67,15.67c0,3.74-1.4,7.28-3.59,9.98-.33,.4-.88,.55-1.36,.36-.32-.12-.64-.25-1-.25-1.85,0-3.36,1.65-3.41,5.22,0,.11-.02,.22-.05,.32-.16,.55-.83,1.14-1.66,1.37-.39,.11-.8,.15-1.2,.12-.07,0-.14-.02-.21-.04-.33,.37-.78,.61-1.27,.69-.47,.09-.95,.08-1.41-.01-.18-.04-.36-.11-.52-.2-.06,.04-.13,.07-.2,.1-.85,.33-2.01,.26-2.76-.36-.07-.06-.14-.12-.19-.19h0Zm-7.98-7.84c-2.02-2.49-3.33-5.81-3.33-9.27C2.37,7.92,8.85,1.43,16.84,1.43s14.48,6.49,14.48,14.48c0,3.46-1.3,6.73-3.32,9.22-.46-.18-.92-.33-1.42-.33-2.33,0-4.55,1.89-4.6,6.4-.15,.51-1.48,.78-1.76,.58-.4-.28-.29-1.39-.43-1.55-.08-.11-.23-.13-.34-.05h0c-.16,.13-.05,1.46-.24,1.94-.21,.53-1.54,.51-1.79,.3-.42-.35-.15-1.7-.41-1.92-.14-.12-.21-.1-.35-.04-.18,.08-.08,1.85-.44,1.99-.48,.19-1.15,.18-1.57-.17-.39-.32-.11-1.91-.27-2.05-.08-.08-.21-.1-.32-.04-.15,.06-.26,1.66-.68,1.66-.91,0-1.35-.2-1.67-.52,.11-4.53-2.28-6.53-4.62-6.53-.5,0-.93,.2-1.38,.37h0Zm8.91,.36c-.35-.48,.22-1.47,.64-2.11,.52-.79,1.2-1.44,1.53-1.44,.4,0,1.25,1.19,1.43,1.45,.22,.32,.96,1.24,.75,1.98-.15,.52-1,.84-2.07,.87s-2.01-.37-2.29-.74Zm8.78-3.19c3.4,.05,6.2-2.66,6.25-6.06,.01-.84-.15-1.68-.47-2.46,1.61,2.69,.74,6.17-1.94,7.78-1.15,.69-2.51,.95-3.84,.73h0Zm-15.06-.05c3.4,.05,6.2-2.66,6.25-6.06,.01-.84-.15-1.68-.47-2.46,1.61,2.69,.74,6.17-1.94,7.78-1.15,.69-2.51,.95-3.84,.73Zm-.19-4.22v1.55c0,.69,.56,1.25,1.25,1.25s1.25-.56,1.25-1.25v-1.55h1.55c.69,0,1.25-.56,1.25-1.25s-.56-1.25-1.25-1.25h-1.55v-1.54c0-.69-.56-1.25-1.25-1.25s-1.25,.56-1.25,1.25v1.55h-1.55c-.69,0-1.25,.56-1.25,1.25s.56,1.25,1.25,1.25h1.55Zm15.38-6.98c-3.26,.82-5.25,4.13-4.43,7.4,.2,.81,.57,1.57,1.08,2.23-2.23-2.16-2.29-5.71-.13-7.94,.92-.96,2.16-1.55,3.48-1.69h0Zm-15.06-.05c-3.26,.82-5.25,4.13-4.43,7.4,.2,.81,.57,1.57,1.08,2.23-2.23-2.16-2.29-5.71-.13-7.94,.92-.95,2.16-1.55,3.48-1.68h0Zm.92,9.17l-.45-.63h.9l-.45,.63Zm11.67-.58c-.22,0-.43-.07-.58-.22-.15-.14-.24-.35-.23-.56,0-.24,.09-.48,.27-.65,.18-.17,.41-.26,.66-.25,.21,0,.42,.07,.58,.22,.15,.15,.23,.35,.23,.56,0,.24-.09,.48-.27,.64-.17,.17-.4,.26-.64,.25h0Zm3.22-.07l1.24-6.04h-1.44l-1.24,6.04h1.44Zm2.9,0l1.24-6.04h-1.44l-1.24,6.04h1.44Zm-14.41-2.74l-.63,.45v-.9l.63,.45Zm-6.78,0l.63-.45v.9l-.63-.45Zm15.7-.29c-.22,0-.43-.07-.58-.22-.15-.14-.24-.35-.23-.56,0-.24,.09-.48,.27-.65,.18-.17,.41-.26,.66-.25,.21,0,.42,.07,.58,.22,.15,.15,.23,.35,.23,.56,0,.24-.09,.48-.27,.64-.17,.17-.4,.26-.64,.25h0Zm-12.31-3.11l.45,.63h-.9l.45-.63Z"/></g></g></svg>