<?xml version="1.0" encoding="utf-8"?>
<!-- Generator: Adobe Illustrator 26.3.1, SVG Export Plug-In . SVG Version: 6.00 Build 0)  -->
<svg version="1.1" id="Layer_1" xmlns="http://www.w3.org/2000/svg" xmlns:xlink="http://www.w3.org/1999/xlink" x="0px" y="0px"
	 viewBox="0 0 409 437.5" style="enable-background:new 0 0 409 437.5;" xml:space="preserve">
<style type="text/css">
	.st0{fill-rule:evenodd;clip-rule:evenodd;fill:#FFFFFF;}
</style>
<path id="_-" class="st0" d="M163.3,427.7c-1.4,0.3-2.8,0.5-4.2,0.5c-18.1-0.1-26.5-5.1-32.8-11.4c-3-3-4.6-7.1-4.5-11.3
	c1.1-46.7-20.6-69.2-44.6-69.2c-4.6,0-8.3,2.3-12.5,3.9c-6.3,2.4-13.4,0.5-17.7-4.7c-28.6-35.1-47-82-47-130.8
	C0,91.6,91.6,0,204.5,0S409,91.6,409,204.5c0,48.8-18.2,95-46.9,130.2c-4.3,5.2-11.4,7.1-17.7,4.7c-4.2-1.6-8.3-3.2-13-3.2
	c-24.1,0-43.9,21.5-44.5,68.2c0,1.4-0.2,2.9-0.6,4.2c-2.1,7.1-10.8,14.9-21.7,17.9c-5.1,1.5-10.4,2-15.6,1.5
	c-0.9-0.1-1.9-0.3-2.8-0.5c-4.4,4.8-10.2,7.9-16.6,9c-6.1,1.1-12.3,1.1-18.4-0.2c-2.4-0.5-4.7-1.4-6.9-2.7c-0.8,0.5-1.7,0.9-2.6,1.3
	c-11.1,4.3-26.2,3.4-36-4.7C164.9,429.5,164,428.6,163.3,427.7L163.3,427.7z M59.1,325.5c-26.4-32.5-43.5-75.9-43.5-121
	c0-104.3,84.7-188.9,188.9-188.9s188.9,84.7,188.9,188.9c0,45.1-16.9,87.8-43.4,120.3c-6-2.3-12-4.3-18.6-4.3
	c-30.5,0-59.3,24.6-60.1,83.6c-2,6.6-19.3,10.2-23,7.6c-5.2-3.7-3.8-18.2-5.6-20.3c-1-1.4-3-1.7-4.5-0.7c0,0,0,0,0,0
	c-2.1,1.7-0.6,19-3.1,25.3c-2.8,7-20.1,6.6-23.4,3.9c-5.4-4.5-1.9-22.2-5.3-25c-1.9-1.5-2.8-1.3-4.5-0.5c-2.4,1-1.1,24.2-5.8,26
	c-6.3,2.4-14.9,2.4-20.6-2.2c-5.1-4.2-1.4-24.9-3.5-26.8c-1.1-1.1-2.8-1.3-4.1-0.5c-1.9,0.8-3.4,21.7-8.9,21.7
	c-11.9,0-17.6-2.6-21.8-6.8c1.4-59.1-29.8-85.2-60.2-85.2C70.6,320.6,65,323.2,59.1,325.5L59.1,325.5z M175.4,330.2
	c-4.6-6.2,2.9-19.2,8.3-27.5c6.8-10.4,15.6-18.8,19.9-18.8c5.2,0,16.3,15.5,18.7,18.9c2.9,4.1,12.6,16.2,9.8,25.8
	c-1.9,6.7-13,11-27,11.4S179,335,175.4,330.2z M289.9,288.5c44.3,0.7,80.9-34.7,81.6-79c0.2-11-1.9-21.9-6.1-32.1
	c21,35,9.7,80.5-25.3,101.5C325,288,307.2,291.4,289.9,288.5L289.9,288.5z M93.4,287.9c44.3,0.7,80.9-34.7,81.6-79
	c0.2-11-1.9-21.9-6.1-32.1c21,35,9.7,80.5-25.3,101.5C128.4,287.3,110.7,290.7,93.4,287.9z M90.9,232.8v20.2c0,9,7.3,16.3,16.3,16.3
	s16.3-7.3,16.3-16.3v-20.2h20.2c9,0,16.3-7.3,16.3-16.3c0-9-7.3-16.3-16.3-16.3h-20.2V180c0-9-7.3-16.3-16.3-16.3S90.9,171,90.9,180
	v20.2H70.7c-9,0-16.3,7.3-16.3,16.3c0,9,7.3,16.3,16.3,16.3L90.9,232.8z M291.6,141.8c-42.6,10.7-68.5,53.9-57.8,96.5
	c2.7,10.6,7.5,20.5,14.1,29.1c-29.1-28.1-29.9-74.6-1.7-103.7C258.2,151.3,274.3,143.5,291.6,141.8L291.6,141.8z M95.1,141.1
	c-42.6,10.7-68.4,53.9-57.7,96.5c2.7,10.5,7.4,20.4,14.1,29.1c-29.1-28.2-29.9-74.6-1.7-103.6C61.7,150.6,77.8,142.8,95.1,141.1
	L95.1,141.1z M107.1,260.8l-5.9-8.2H113L107.1,260.8z M259.4,253.2c-2.8,0.1-5.6-0.9-7.6-2.9c-2-1.9-3.1-4.5-3-7.3
	c-0.1-3.2,1.1-6.3,3.5-8.4c2.3-2.2,5.4-3.4,8.6-3.3c2.8-0.1,5.5,0.9,7.6,2.8c2,1.9,3,4.6,2.9,7.3c0.1,3.2-1.2,6.2-3.5,8.4
	C265.5,252.1,262.5,253.3,259.4,253.2L259.4,253.2z M301.4,252.3l16.2-78.8h-18.8l-16.2,78.8H301.4z M339.3,252.3l16.2-78.8h-18.8
	l-16.2,78.8H339.3z M151.3,216.5l-8.3,5.9v-11.8L151.3,216.5z M62.8,216.5l8.2-5.9v11.8L62.8,216.5z M267.7,212.8
	c-2.8,0.1-5.6-0.9-7.6-2.9c-2-1.9-3.1-4.5-3-7.3c-0.1-3.2,1.2-6.3,3.5-8.4c2.3-2.2,5.4-3.3,8.5-3.3c2.8-0.1,5.5,0.9,7.6,2.8
	c2,1.9,3.1,4.6,3,7.3c0.1,3.2-1.2,6.2-3.5,8.4C273.8,211.7,270.8,212.9,267.7,212.8L267.7,212.8z M107,172.3l5.9,8.2h-11.8
	L107,172.3z"/>
</svg>
